<svg xmlns="http://www.w3.org/2000/svg" viewBox="0 0 512 512">
  <rect width="512" height="512" fill="oklch(0.95 0.012 85)"/>
  <g transform="translate(256 256)">
    <path d="M0 -150 A150 150 0 0 1 129.9 -75 L60.6 -35 A70 70 0 0 0 0 -70 Z" fill="oklch(0.55 0.15 300)"/>
    <path d="M129.9 -75 A150 150 0 0 1 129.9 75 L60.6 35 A70 70 0 0 0 60.6 -35 Z" fill="oklch(0.63 0.12 150)"/>
    <path d="M129.9 75 A150 150 0 0 1 0 150 L0 70 A70 70 0 0 0 60.6 35 Z" fill="oklch(0.62 0.10 225)"/>
    <path d="M0 150 A150 150 0 0 1 -129.9 75 L-60.6 35 A70 70 0 0 0 0 70 Z" fill="oklch(0.71 0.13 55)"/>
    <path d="M-129.9 75 A150 150 0 0 1 -129.9 -75 L-60.6 -35 A70 70 0 0 0 -60.6 35 Z" fill="oklch(0.60 0.16 25)"/>
    <path d="M-129.9 -75 A150 150 0 0 1 0 -150 L0 -70 A70 70 0 0 0 -60.6 -35 Z" fill="oklch(0.70 0.02 260)"/>
    <circle r="178" fill="none" stroke="oklch(0.2 0.01 70)" stroke-width="4" opacity="0.5"/>
  </g>
</svg>
